<?xml version="1.0" encoding="UTF-8" standalone="no"?>
<!-- Created with Inkscape (http://www.inkscape.org/) -->

<svg
   xmlns:dc="http://purl.org/dc/elements/1.1/"
   xmlns:cc="http://creativecommons.org/ns#"
   xmlns:rdf="http://www.w3.org/1999/02/22-rdf-syntax-ns#"
   xmlns:svg="http://www.w3.org/2000/svg"
   xmlns="http://www.w3.org/2000/svg"
   xmlns:sodipodi="http://sodipodi.sourceforge.net/DTD/sodipodi-0.dtd"
   xmlns:inkscape="http://www.inkscape.org/namespaces/inkscape"
   width="150"
   height="150"
   viewBox="0 0 150 150"
   id="svg3417"
   version="1.1"
   inkscape:version="0.91 r13725"
   sodipodi:docname="cog_2.svg">
  <defs
     id="defs3419" />
  <sodipodi:namedview
     id="base"
     pagecolor="#ffffff"
     bordercolor="#666666"
     borderopacity="1.0"
     inkscape:pageopacity="0.0"
     inkscape:pageshadow="2"
     inkscape:zoom="2.89625"
     inkscape:cx="119.67199"
     inkscape:cy="57.085303"
     inkscape:document-units="px"
     inkscape:current-layer="layer1"
     showgrid="false"
     units="px"
     inkscape:showpageshadow="false"
     inkscape:window-width="1600"
     inkscape:window-height="837"
     inkscape:window-x="-8"
     inkscape:window-y="-8"
     inkscape:window-maximized="1" />
  <metadata
     id="metadata3422">
    <rdf:RDF>
      <cc:Work
         rdf:about="">
        <dc:format>image/svg+xml</dc:format>
        <dc:type
           rdf:resource="http://purl.org/dc/dcmitype/StillImage" />
        <dc:title></dc:title>
      </cc:Work>
    </rdf:RDF>
  </metadata>
  <g
     inkscape:label="Layer 1"
     inkscape:groupmode="layer"
     id="layer1"
     transform="translate(0,-902.3622)">
    <path
       inkscape:connector-curvature="0"
       style="fill:#282a1f"
       d="m 133.00603,977.36218 c -0.19678,-2.45937 -0.0899,-4.94982 -0.55038,-7.38488 5.96931,-2.64511 12.06449,-5.9379 17.54435,-9.74802 -0.84405,-3.66621 -2.03172,-7.23128 -3.45613,-10.72049 -6.9602,-0.43664 -14.0213,-0.0408 -20.54799,0.92093 -1.37146,-2.07525 -2.4982,-4.3129 -4.11339,-6.22769 -1.45337,-2.03148 -3.10652,-3.90348 -4.85856,-5.6938 3.37922,-5.70741 6.00528,-11.54805 8.30071,-17.92939 -2.91774,-2.41172 -5.97231,-4.71549 -9.25064,-6.65946 -5.93136,3.67496 -11.28936,7.82934 -16.103966,12.52831 -2.245485,-1.16599 -4.671768,-1.91771 -7.050104,-2.77932 -2.426283,-0.6992 -4.882532,-1.37798 -7.376738,-1.80198 -0.752158,-6.32493 -2.119626,-12.95716 -4.139364,-19.24611 -3.825715,-0.26937 -7.654427,-0.38023 -11.48214,-0.0729 -2.576115,6.23546 -4.383091,12.93576 -5.46488,19.31904 -2.495205,0.424 -4.950455,1.10278 -7.376738,1.80198 -2.378336,0.86258 -4.804619,1.61333 -7.051102,2.78029 -4.49996,-4.81761 -9.512347,-9.25887 -14.965239,-13.20514 -3.347251,1.8545 -6.367868,4.18258 -9.394479,6.47275 1.877897,6.73239 4.166334,12.85797 7.306817,18.79099 -1.752038,1.79226 -3.405186,3.66329 -4.858559,5.6938 -1.614192,1.91576 -2.741929,4.15341 -4.113393,6.22866 -6.420808,-1.27199 -13.158262,-2.00329 -20.0765139,-2.13749 -1.3584785,3.50769 -2.75891,7.00955 -3.59996805,10.67673 5.33202815,4.33331 11.24540495,8.03259 17.21671695,11.00931 -0.460484,2.43506 -0.353604,4.92357 -0.550383,7.38391 0.196779,2.45938 0.0899,4.94987 0.550383,7.38492 -5.969314,2.64512 -12.0644874,5.93789 -17.54435,9.74802 0.84505354,3.66621 2.0307256,7.23125 3.457128,10.72045 6.959206,0.4366 14.021296,0.041 20.546987,-0.9209 1.371464,2.0752 2.499201,4.3129 4.113393,6.2277 1.453373,2.0314 3.106521,3.9025 4.858559,5.6938 -3.379215,5.7074 -6.005274,11.548 -8.299705,17.9293 2.916734,2.4118 5.972311,4.7155 9.249641,6.6595 5.932356,-3.675 11.290355,-7.8293 16.103963,-12.5283 2.245485,1.166 4.671768,1.9177 7.050104,2.7793 2.426283,0.6992 4.882532,1.378 7.376738,1.802 0.752158,6.3249 2.119626,12.9572 4.139364,19.2461 3.825715,0.2694 7.654427,0.3802 11.48214,0.073 2.576115,-6.2354 4.383091,-12.9357 5.46488,-19.319 2.495205,-0.424 4.950455,-1.1028 7.376738,-1.802 2.378336,-0.8626 4.804619,-1.6133 7.050104,-2.7803 4.500956,4.8176 9.513346,9.2589 14.966236,13.2052 3.34725,-1.8545 6.36787,-4.1826 9.39448,-6.4728 -1.8769,-6.7324 -4.16633,-12.8579 -7.30682,-18.791 1.75204,-1.7922 3.40519,-3.6633 4.85856,-5.6938 1.61519,-1.9157 2.74193,-4.1534 4.11339,-6.2286 6.42081,1.272 13.15827,2.0033 20.07652,2.1365 1.35848,-3.5067 2.75891,-7.00855 3.59997,-10.67573 -5.33103,-4.33332 -11.24441,-8.03258 -17.21572,-11.00931 0.45948,-2.43506 0.3526,-4.92457 0.54938,-7.38395 z m -46.945418,33.12612 c -7.078072,2.2386 -15.042153,2.2396 -22.120225,0 -7.021137,-2.3164 -13.547827,-6.674 -17.862994,-12.6897 -4.506952,-5.8951 -6.754435,-13.08359 -6.871304,-20.43739 0.116869,-7.35376 2.364352,-14.54128 6.871304,-20.43735 4.314168,-6.01569 10.841857,-10.37332 17.862994,-12.68974 7.078072,-2.23959 15.042153,-2.23862 22.120225,0 7.021136,2.31642 13.547827,6.67405 17.861998,12.68974 4.50895,5.8951 6.75443,13.08359 6.8723,20.43735 -0.11787,7.3538 -2.36335,14.54131 -6.8723,20.43739 -4.314171,6.0157 -10.840862,10.3733 -17.861998,12.6897 z"
       id="path55" />
  </g>
</svg>
