<?xml version="1.0" encoding="UTF-8" standalone="no"?>
<!-- Created with Inkscape (http://www.inkscape.org/) -->

<svg
   xmlns:dc="http://purl.org/dc/elements/1.1/"
   xmlns:cc="http://creativecommons.org/ns#"
   xmlns:rdf="http://www.w3.org/1999/02/22-rdf-syntax-ns#"
   xmlns:svg="http://www.w3.org/2000/svg"
   xmlns="http://www.w3.org/2000/svg"
   xmlns:sodipodi="http://sodipodi.sourceforge.net/DTD/sodipodi-0.dtd"
   xmlns:inkscape="http://www.inkscape.org/namespaces/inkscape"
   width="115"
   height="116"
   viewBox="0 0 115 116"
   id="svg3417"
   version="1.1"
   inkscape:version="0.91 r13725"
   sodipodi:docname="cog_1.svg">
  <defs
     id="defs3419" />
  <sodipodi:namedview
     id="base"
     pagecolor="#ffffff"
     bordercolor="#666666"
     borderopacity="1.0"
     inkscape:pageopacity="0.0"
     inkscape:pageshadow="2"
     inkscape:zoom="2.89625"
     inkscape:cx="125.71429"
     inkscape:cy="17.580826"
     inkscape:document-units="px"
     inkscape:current-layer="layer1"
     showgrid="false"
     units="px"
     inkscape:showpageshadow="false"
     inkscape:window-width="1600"
     inkscape:window-height="837"
     inkscape:window-x="-8"
     inkscape:window-y="-8"
     inkscape:window-maximized="1" />
  <metadata
     id="metadata3422">
    <rdf:RDF>
      <cc:Work
         rdf:about="">
        <dc:format>image/svg+xml</dc:format>
        <dc:type
           rdf:resource="http://purl.org/dc/dcmitype/StillImage" />
        <dc:title></dc:title>
      </cc:Work>
    </rdf:RDF>
  </metadata>
  <g
     inkscape:label="Layer 1"
     inkscape:groupmode="layer"
     id="layer1"
     transform="translate(0,-936.3622)">
    <g
       transform="translate(-236.188,834.0192)"
       id="g57">
      <path
         style="fill:none"
         inkscape:connector-curvature="0"
         d="m 303.518,147.294 c -4.535,-3.442 -11.13,-4.169 -16.307,-1.798 -5.406,2.256 -9.092,7.54 -9.774,13.254 -0.579,5.724 1.868,11.687 6.653,15.065 4.535,3.442 11.131,4.168 16.309,1.797 5.407,-2.256 9.094,-7.542 9.775,-13.254 0.577,-5.718 -1.869,-11.686 -6.656,-15.064 z"
         id="path59" />
      <path
         style="fill:#282a1f"
         inkscape:connector-curvature="0"
         d="m 330.424,173.039 c 0.916,-2.674 1.479,-5.445 1.854,-8.243 0.243,-2.812 0.297,-5.639 -0.015,-8.449 6.095,-2.816 11.902,-6.66 17.159,-11.476 -1.345,-4.616 -3.168,-9.108 -5.617,-13.233 -7.362,-0.06 -14.435,1.139 -20.898,3.465 -1.809,-2.167 -3.956,-4.034 -6.211,-5.721 -2.257,-1.699 -4.743,-3.059 -7.299,-4.257 0.576,-6.612 0.166,-13.652 -1.387,-20.557 -4.649,-1.225 -9.423,-1.732 -14.209,-1.803 -3.76,6.385 -6.257,13.123 -7.498,19.814 -2.754,0.612 -5.478,1.398 -8.05,2.563 -2.568,1.156 -5.071,2.51 -7.308,4.231 -5.524,-3.922 -11.71,-6.96 -18.503,-9.146 -3.385,3.405 -6.244,7.309 -8.693,11.449 3.65,6.446 8.229,11.974 13.438,16.394 -0.916,2.674 -1.479,5.446 -1.853,8.243 -0.244,2.812 -0.298,5.639 0.013,8.449 -6.095,2.816 -11.903,6.66 -17.159,11.475 1.345,4.616 3.167,9.108 5.617,13.235 7.362,0.06 14.435,-1.139 20.898,-3.465 1.809,2.167 3.956,4.034 6.21,5.721 2.258,1.699 4.744,3.059 7.3,4.256 -0.576,6.612 -0.165,13.652 1.388,20.557 4.65,1.225 9.422,1.731 14.208,1.802 3.759,-6.385 6.256,-13.123 7.497,-19.814 2.755,-0.612 5.478,-1.398 8.051,-2.564 2.568,-1.155 5.071,-2.509 7.309,-4.23 5.523,3.923 11.709,6.961 18.502,9.147 3.385,-3.405 6.244,-7.309 8.694,-11.449 -3.651,-6.446 -8.23,-11.974 -13.438,-16.394 z m -20.25,-10.68 c -0.682,5.712 -4.368,10.998 -9.775,13.254 -5.178,2.371 -11.773,1.645 -16.309,-1.797 -4.785,-3.379 -7.232,-9.341 -6.653,-15.065 0.682,-5.714 4.368,-10.998 9.774,-13.254 5.177,-2.371 11.771,-1.645 16.307,1.798 4.787,3.377 7.233,9.345 6.656,15.064 z"
         id="path61" />
    </g>
  </g>
</svg>
